<?xml version="1.0" encoding="UTF-8"?>
<svg width="24px" height="24px" viewBox="0 0 24 24" version="1.1" xmlns="http://www.w3.org/2000/svg" xmlns:xlink="http://www.w3.org/1999/xlink">
    <!-- Generator: Sketch 53.2 (72643) - https://sketchapp.com -->
    <title>Icons/message-circle-color</title>
    <desc>Created with Sketch.</desc>
    <g id="Icons/message-circle" stroke="none" stroke-width="1" fill="none" fill-rule="evenodd">
        <path d="M4.58113883,19.4188612 L8.38377223,18.1513167 C8.63671809,18.0670014 8.91286142,18.0871917 9.15085336,18.207402 C10.1883822,18.7314602 11.3350271,19.003034 12.499613,19.0000001 C15.3398256,18.9989011 17.9357535,17.3935246 19.207402,14.8491466 C19.7314602,13.8116178 20.003034,12.6649729 20.0000034,11.5026073 L20.0015184,11.0550854 C19.7914965,7.24821579 16.7517842,4.20850354 13,4 L12.4973927,3.9999966 C11.3350271,3.996966 10.1883822,4.26853978 9.14705875,4.7945046 C6.60647541,6.06424654 5.00109895,8.66017444 4.9999966,11.5026073 C4.996966,12.6649729 5.26853978,13.8116178 5.79259803,14.8491466 C5.91280832,15.0871386 5.93299858,15.3632819 5.8486833,15.6162278 L4.58113883,19.4188612 Z M22,11.4987331 C22.0036397,12.9756442 21.6584766,14.432549 20.9945046,15.7470587 C19.3861648,18.965131 16.0979895,20.9986078 12.5026073,20.9999966 C11.1675361,21.0034775 9.84878241,20.7219325 8.63394863,20.1761097 L3.31622777,21.9486833 C2.53446974,22.2092693 1.79073069,21.4655303 2.0513167,20.6837722 L3.82388994,15.3660525 C3.2780673,14.1512376 2.99652219,12.8326774 3.00000007,11.499613 C3.00139217,7.90201054 5.03486902,4.6138352 8.24914664,3.00740197 C9.56784863,2.3413225 11.0252373,1.9961515 12.5,2 L13.0550854,2.00151835 C17.8798346,2.26769584 21.7323042,6.12016537 22,11 L22,11.4987331 Z" id="icon" fill="#FF6852"></path>
    </g>
</svg>